<svg width="19" height="19" viewBox="0 0 19 19" fill="none" xmlns="http://www.w3.org/2000/svg">
<path d="M11.8902 0.329334C11.7745 0.470192 11.7037 0.642576 11.6868 0.824212C11.6699 1.00585 11.7077 1.18839 11.7954 1.34825C12.4805 2.6088 12.8383 4.02177 12.8358 5.45717C12.8358 10.2323 8.95148 14.099 4.16422 14.099C3.53974 14.099 2.93185 14.0337 2.34766 13.909C2.16858 13.8701 1.98205 13.885 1.81135 13.9517C1.64065 14.0184 1.49335 14.1341 1.38784 14.2842C1.27647 14.4403 1.21969 14.6289 1.22633 14.8207C1.23297 15.0125 1.30267 15.1967 1.42458 15.3447C2.35396 16.4888 3.52641 17.4107 4.85644 18.043C6.18646 18.6754 7.64053 19.0023 9.11264 19C14.5753 19 19 14.5894 19 9.1552C19 5.06528 16.495 1.55726 12.9282 0.0704477C12.7506 -0.00480507 12.5533 -0.0202504 12.3661 0.026432C12.179 0.0731144 12.012 0.179404 11.8902 0.329334ZM13.2434 1.55607C14.6149 2.29334 15.7614 3.38922 16.5612 4.72726C17.3609 6.0653 17.784 7.59549 17.7854 9.1552C17.7854 13.9292 13.8999 17.7958 9.11264 17.7958C7.96625 17.7978 6.83085 17.5719 5.77216 17.1312C4.71346 16.6905 3.7525 16.0437 2.94489 15.2283C3.34422 15.2782 3.75066 15.3031 4.16422 15.3031C9.62691 15.3031 14.0504 10.8926 14.0504 5.45836C14.0504 4.07249 13.7636 2.75312 13.2434 1.55607Z" fill="#FAFAFA"/>
<path d="M6.38047 3.64301C6.36289 3.59287 6.32903 3.54924 6.28369 3.51832C6.23836 3.48739 6.18385 3.47075 6.12793 3.47075C6.07201 3.47075 6.0175 3.48739 5.97217 3.51832C5.92683 3.54924 5.89297 3.59287 5.87539 3.64301L5.40096 4.98837C5.18888 5.58811 4.69116 6.05818 4.05613 6.25848L2.63162 6.70654C2.57853 6.72315 2.53233 6.75513 2.49959 6.79795C2.46684 6.84076 2.44922 6.89223 2.44922 6.94505C2.44922 6.99787 2.46684 7.04934 2.49959 7.09216C2.53233 7.13497 2.57853 7.16695 2.63162 7.18356L4.05613 7.63162C4.36932 7.73017 4.65391 7.89626 4.88733 8.11671C5.12076 8.33717 5.29662 8.60594 5.40096 8.90173L5.87539 10.2471C5.89297 10.2972 5.92683 10.3409 5.97217 10.3718C6.0175 10.4027 6.07201 10.4194 6.12793 10.4194C6.18385 10.4194 6.23836 10.4027 6.28369 10.3718C6.32903 10.3409 6.36289 10.2972 6.38047 10.2471L6.8549 8.90173C6.95924 8.60594 7.1351 8.33717 7.36852 8.11671C7.60195 7.89626 7.88654 7.73017 8.19973 7.63162L9.62424 7.18356C9.67733 7.16695 9.72353 7.13497 9.75627 7.09216C9.78902 7.04934 9.80664 6.99787 9.80664 6.94505C9.80664 6.89223 9.78902 6.84076 9.75627 6.79795C9.72353 6.75513 9.67733 6.72315 9.62424 6.70654L8.19973 6.25848C7.88654 6.15993 7.60195 5.99385 7.36852 5.77339C7.1351 5.55293 6.95924 5.28416 6.8549 4.98837L6.38047 3.64301ZM2.61813 0.112888C2.60603 0.0799215 2.58335 0.0513351 2.55325 0.0311033C2.52315 0.0108716 2.48713 0 2.45018 0C2.41324 0 2.37721 0.0108716 2.34711 0.0311033C2.31701 0.0513351 2.29433 0.0799215 2.28223 0.112888L1.96595 1.00902C1.82497 1.40962 1.49274 1.72338 1.06858 1.85653L0.119719 2.15524C0.0848122 2.16667 0.0545435 2.18809 0.0331211 2.21652C0.0116997 2.24494 0.000188828 2.27897 0.000188828 2.31386C0.000188828 2.34875 0.0116997 2.38278 0.0331211 2.41121C0.0545435 2.43963 0.0848122 2.46105 0.119719 2.47248L1.06858 2.77119C1.27761 2.83686 1.46755 2.94766 1.62333 3.09478C1.7791 3.24189 1.89641 3.42128 1.96595 3.6187L2.28223 4.51483C2.29433 4.5478 2.31701 4.57639 2.34711 4.59662C2.37721 4.61685 2.41324 4.62772 2.45018 4.62772C2.48713 4.62772 2.52315 4.61685 2.55325 4.59662C2.58335 4.57639 2.60603 4.5478 2.61813 4.51483L2.93442 3.6187C3.00396 3.42128 3.12127 3.24189 3.27704 3.09478C3.43281 2.94766 3.62276 2.83686 3.83179 2.77119L4.78065 2.47248C4.81555 2.46105 4.84582 2.43963 4.86725 2.41121C4.88867 2.38278 4.90018 2.34875 4.90018 2.31386C4.90018 2.27897 4.88867 2.24494 4.86725 2.21652C4.84582 2.18809 4.81555 2.16667 4.78065 2.15524L3.83179 1.85653C3.40762 1.72338 3.0754 1.40962 2.93442 1.00902L2.61813 0.114046V0.112888Z" fill="#FAFAFA"/>
</svg>
